<svg width="176" height="59" viewBox="0 0 176 59" fill="none" xmlns="http://www.w3.org/2000/svg">
<path fill-rule="evenodd" clip-rule="evenodd" d="M132.364 75.351L134.496 78.285H133.224L131.258 75.466H131.071V78.286H130.032V71.4H131.249C132.159 71.4 132.816 71.571 133.219 71.913C133.666 72.293 133.889 72.796 133.889 73.419C133.889 73.908 133.749 74.327 133.47 74.677C133.191 75.027 132.822 75.252 132.364 75.351ZM131.071 74.561V72.377H131.441C132.399 72.377 132.877 72.729 132.877 73.433C132.877 74.186 132.385 74.562 131.401 74.562H131.071V74.561ZM124.128 72.376H121.368V74.03H124.048V75.007H121.368V77.309H124.128V78.286H120.328V71.399H124.128V72.376ZM110.776 74.146L113.457 71.399H114.844L111.731 74.517L114.861 78.286H113.469L110.99 75.221L110.776 75.435V78.285H109.737V71.399H110.777V74.147L110.776 74.146ZM102.478 76.613H99.53L98.763 78.285H97.643L101.051 70.967L104.338 78.285H103.2L102.478 76.613ZM102.054 75.636L101.034 73.295L99.962 75.635H102.054V75.636ZM84.872 78.286L86.321 70.883L88.685 76.234L91.133 70.883L92.435 78.285H91.37L90.705 74.13L88.667 78.602L86.687 74.125L85.947 78.285H84.873L84.872 78.286ZM79.209 72.376H76.449V74.03H79.129V75.007H76.449V77.309H79.209V78.286H75.409V71.399H79.209V72.376ZM62.365 74.811C62.365 73.841 62.72 73.011 63.431 72.314C63.7638 71.9766 64.1615 71.7102 64.6001 71.5308C65.0387 71.3513 65.5092 71.2626 65.983 71.27C66.963 71.27 67.805 71.62 68.506 72.323C69.211 73.024 69.563 73.868 69.563 74.851C69.563 75.841 69.21 76.681 68.501 77.371C67.791 78.064 66.934 78.411 65.928 78.411C65.04 78.411 64.241 78.102 63.534 77.486C62.755 76.806 62.365 75.914 62.365 74.811ZM63.414 74.825C63.414 75.585 63.669 76.212 64.18 76.702C64.688 77.193 65.276 77.438 65.942 77.438C66.664 77.438 67.274 77.188 67.77 76.688C68.266 76.183 68.515 75.568 68.515 74.843C68.515 74.109 68.269 73.493 67.779 72.997C67.292 72.496 66.689 72.247 65.969 72.247C65.253 72.247 64.647 72.496 64.154 72.997C63.66 73.49 63.414 74.1 63.414 74.825ZM52.51 74.093H55.481V71.401H56.519V78.286H55.48V75.071H52.51V78.286H51.47V71.401H52.51V74.094V74.093ZM167.014 36.058L175.76 56.051H173.283L170.781 50.158H163.274L160.772 56.051H158.296L167.014 36.058ZM167.014 41.117L163.946 48.193H170.082L167.014 41.117ZM45.5 72.425L44.658 72.925C44.5 72.652 44.35 72.472 44.208 72.391C44.058 72.295 43.866 72.248 43.631 72.246C43.343 72.246 43.104 72.328 42.913 72.492C42.8223 72.5647 42.7495 72.6573 42.7001 72.7625C42.6507 72.8677 42.6261 72.9828 42.628 73.099C42.628 73.434 42.878 73.706 43.378 73.911L44.065 74.191C44.623 74.418 45.031 74.694 45.291 75.021C45.549 75.345 45.679 75.744 45.679 76.216C45.679 76.85 45.467 77.373 45.045 77.786C44.62 78.202 44.092 78.409 43.462 78.409C42.865 78.409 42.372 78.233 41.982 77.879C41.598 77.526 41.358 77.027 41.264 76.385L42.315 76.153C42.364 76.558 42.447 76.838 42.565 76.993C42.78 77.29 43.092 77.438 43.502 77.438C43.827 77.438 44.095 77.329 44.309 77.112C44.523 76.895 44.631 76.621 44.631 76.287C44.631 76.153 44.611 76.032 44.573 75.921C44.5367 75.8081 44.4775 75.7039 44.399 75.615C44.3126 75.5111 44.2099 75.422 44.095 75.351C43.9539 75.2585 43.8046 75.1792 43.649 75.114L42.985 74.838C42.042 74.44 41.572 73.858 41.572 73.09C41.572 72.573 41.769 72.14 42.165 71.793C42.56 71.441 43.051 71.266 43.64 71.266C44.435 71.266 45.054 71.653 45.5 72.426V72.425ZM14.908 39.989C13.475 38.959 11.903 38.479 10.091 38.479C8.073 38.479 6.028 39.342 4.601 40.821C3.121 42.355 2.394 44.238 2.394 46.498C2.394 48.275 2.825 49.782 3.713 51.046C5.247 53.226 7.588 54.464 10.199 54.464C11.93 54.464 13.509 53.956 14.909 52.918V55.418C13.3869 56.1734 11.7102 56.565 10.011 56.562C7.98078 56.5646 5.9985 55.9451 4.331 54.787C1.535 52.851 0 49.943 0 46.526C0 43.538 0.995 41.144 3.013 39.179C4.978 37.295 7.346 36.354 10.172 36.354C11.857 36.354 13.411 36.734 14.908 37.483V39.989ZM34.814 36.059L43.559 56.051H41.083L38.581 50.158H31.074L28.57 56.051H26.095L34.814 36.058V36.059ZM34.814 41.117L31.746 48.193H37.881L34.814 41.117ZM57.071 38.749V45.18H58.821C61.833 45.18 63.313 44.75 63.313 42.085C63.313 39.287 61.861 38.749 58.82 38.749H57.07H57.071ZM54.837 56.051V36.811H59.357C61.189 36.811 62.586 36.866 63.771 37.781C64.874 38.641 65.573 40.175 65.573 42.058C65.573 45.208 63.771 46.875 60.38 46.875H59.976L67.323 56.051H64.417L57.394 46.875H57.071V56.051H54.837ZM88.042 56.805L82.07 42.974L79.646 56.051H77.413L81.315 36.058L88.042 51.962L94.77 36.058L98.67 56.051H96.437L93.988 42.974L88.042 56.804V56.805ZM111.901 56.052V36.811H114.187V56.051H111.901V56.052ZM127.953 56.052V36.058L142.027 51.423V36.811H144.205V56.805L130.133 41.601V56.051H127.953V56.052ZM87.874 3.038C87.654 3.038 86.024 3.975 85.283 4.394C84.491 4.842 83.383 5.434 83.383 5.659C83.383 5.885 84.74 6.499 85.595 7.052C86.492 7.632 87.422 8.568 87.875 8.568C88.327 8.568 89.267 7.632 90.164 7.052C91.02 6.498 92.376 5.885 92.376 5.659C92.376 5.433 91.268 4.842 90.476 4.394C89.736 3.975 88.096 3.038 87.874 3.038ZM80.4 7.618C77.113 7.618 74.283 10.572 74.283 14.233C74.283 17.896 77.688 19.674 79.586 19.674C81.486 19.674 84.062 18.122 84.062 15.454C84.062 12.787 81.998 11.822 80.446 11.822C78.894 11.822 78.26 13.059 78.26 14.144C78.26 15.229 78.999 15.544 79.542 15.544C80.083 15.544 80.852 14.957 80.852 14.279C80.852 13.601 80.762 13.194 81.305 13.555C81.846 13.918 82.479 14.415 82.479 15.455C82.479 16.494 81.229 17.895 79.496 17.895C77.763 17.895 75.909 16.148 75.909 14.053C75.909 11.959 77.773 9.337 80.672 9.337C83.412 9.337 86.428 12.004 86.428 15.544C86.428 19.085 83.716 21.979 79.631 21.979C75.548 21.979 71.871 18.633 71.871 14.007C71.871 9.381 75.246 6.655 79.677 4.755C83.978 2.912 87.442 0.159 87.847 0C88.308 0.16 91.781 2.912 96.083 4.755C100.513 6.655 103.889 9.381 103.889 14.007C103.889 18.633 100.211 21.979 96.129 21.979C92.044 21.979 89.331 19.085 89.331 15.544C89.331 12.004 92.347 9.337 95.087 9.337C97.987 9.337 99.85 11.959 99.85 14.053C99.85 16.148 97.996 17.896 96.263 17.896C94.531 17.896 93.28 16.494 93.28 15.455C93.28 14.415 93.913 13.918 94.455 13.555C94.998 13.194 94.907 13.601 94.907 14.279C94.907 14.957 95.676 15.544 96.217 15.544C96.761 15.544 97.498 15.229 97.498 14.144C97.498 13.059 96.866 11.822 95.313 11.822C93.761 11.822 91.698 12.787 91.698 15.455C91.698 18.122 94.274 19.675 96.174 19.675C98.072 19.675 101.478 17.895 101.478 14.233C101.478 10.573 98.647 7.618 95.358 7.618C93.698 7.618 92.024 8.402 91.291 8.885C89.211 10.247 88.193 12.102 87.929 12.411C87.56 12.106 86.551 10.249 84.469 8.885C83.735 8.402 82.062 7.618 80.4 7.618ZM87.085 5.661C87.0851 5.57695 87.1018 5.49376 87.1341 5.41616C87.1664 5.33856 87.2136 5.26808 87.2732 5.20874C87.3327 5.14941 87.4033 5.10238 87.481 5.07033C87.5587 5.03829 87.642 5.02187 87.726 5.022C87.81 5.02213 87.8932 5.03881 87.9708 5.0711C88.0484 5.10338 88.1189 5.15064 88.1783 5.21016C88.2376 5.26968 88.2846 5.34031 88.3167 5.418C88.3487 5.4957 88.3651 5.57895 88.365 5.663C88.3647 5.83274 88.2971 5.99542 88.1768 6.11526C88.0566 6.23509 87.8937 6.30227 87.724 6.302C87.5543 6.30173 87.3916 6.23405 87.2717 6.11384C87.1519 5.99363 87.0847 5.83074 87.085 5.661ZM67.358 97.657L65.71 93.91H65.695L65.055 97.54H64.348L65.469 91.81L67.358 96.14L69.245 91.81L70.368 97.54H69.661L69.021 93.91H69.006L67.358 97.657ZM75.742 96.163H73.221L72.594 97.541H71.857L74.481 91.81L77.106 97.54H76.37L75.742 96.163ZM75.458 95.536L74.481 93.312L73.504 95.536H75.458ZM79.71 92.044V96.914H81.379V97.541H79.024V92.044H79.71ZM83.975 92.044V96.914H85.644V97.541H83.29V92.044H83.975ZM90.048 91.927C91.625 91.927 92.928 93.217 92.928 94.793C92.928 96.425 91.638 97.657 90.048 97.657C88.458 97.657 87.168 96.425 87.168 94.793C87.168 93.216 88.473 91.927 90.048 91.927ZM90.048 97.017C91.238 97.017 92.244 96.047 92.244 94.793C92.244 93.583 91.339 92.569 90.048 92.569C88.758 92.569 87.854 93.582 87.854 94.793C87.852 95.0831 87.9072 95.3707 88.0164 95.6395C88.1256 95.9083 88.2866 96.1529 88.4904 96.3594C88.6941 96.5659 88.9365 96.7303 89.2038 96.8431C89.471 96.956 89.7579 97.015 90.048 97.017ZM96.735 95.149L98.47 97.541H97.639L96.02 95.215H95.735V97.541H95.051V92.044H95.882C96.371 92.044 96.896 92.051 97.334 92.298C97.792 92.568 98.054 93.086 98.054 93.611C98.054 94.398 97.53 95.055 96.734 95.149H96.735ZM95.735 92.655V94.647H95.955C96.655 94.647 97.413 94.515 97.413 93.64C97.413 92.78 96.597 92.655 95.918 92.655H95.735ZM104.471 92.298V93.094C104.067 92.7456 103.552 92.5539 103.019 92.554C101.787 92.554 100.846 93.582 100.846 94.799C100.846 96.004 101.78 97.031 103.006 97.031C103.544 97.031 104.063 96.827 104.471 96.461V97.272C104.03 97.5208 103.533 97.6533 103.027 97.657C101.459 97.657 100.162 96.412 100.162 94.822C100.162 93.195 101.467 91.927 103.086 91.927C103.566 91.927 104.056 92.044 104.471 92.298ZM110.049 96.163H107.527L106.9 97.541H106.163L108.788 91.81L111.413 97.54H110.677L110.049 96.163ZM109.765 95.536L108.788 93.312L107.811 95.536H109.765Z" fill="white"/>
</svg>
