<svg width="26" height="25" viewBox="0 0 26 25" fill="none" xmlns="http://www.w3.org/2000/svg">
<path d="M12.666 5.99951C9.16602 5.99951 6.16602 8.87451 6.16602 12.4995C6.16602 16.1245 9.04102 18.9995 12.666 18.9995C16.291 18.9995 19.166 16.1245 19.166 12.4995C19.166 8.87451 16.166 5.99951 12.666 5.99951ZM12.666 16.6245C10.416 16.6245 8.54102 14.7495 8.54102 12.4995C8.54102 10.2495 10.416 8.37451 12.666 8.37451C14.916 8.37451 16.791 10.2495 16.791 12.4995C16.791 14.7495 14.916 16.6245 12.666 16.6245Z" fill="#32120D"/>
<path d="M19.4165 7.37549C20.2449 7.37549 20.9165 6.70392 20.9165 5.87549C20.9165 5.04706 20.2449 4.37549 19.4165 4.37549C18.5881 4.37549 17.9165 5.04706 17.9165 5.87549C17.9165 6.70392 18.5881 7.37549 19.4165 7.37549Z" fill="#32120D"/>
<path d="M23.1665 2.125C21.9165 0.75 20.0415 0 17.9165 0H7.4165C3.0415 0 0.166504 2.875 0.166504 7.25V17.625C0.166504 19.75 0.916504 21.625 2.2915 23C3.6665 24.25 5.4165 25 7.5415 25H17.7915C19.9165 25 21.7915 24.25 23.0415 23C24.4165 21.75 25.1665 19.875 25.1665 17.625V7.25C25.1665 5.25 24.4165 3.375 23.1665 2.125ZM22.9165 17.75C22.9165 19.25 22.4165 20.625 21.4165 21.375C20.5415 22.25 19.2915 22.625 17.7915 22.625H7.5415C6.0415 22.625 4.7915 22.125 3.9165 21.375C3.0415 20.5 2.5415 19.25 2.5415 17.625V7.25C2.5415 5.75 3.0415 4.5 3.9165 3.625C4.7915 2.75 6.0415 2.375 7.5415 2.375H17.9165C19.4165 2.375 20.6665 2.875 21.5415 3.75C22.4165 4.625 22.9165 5.875 22.9165 7.375V17.75Z" fill="#32120D"/>
</svg>
