<svg width="28" height="15" viewBox="0 0 28 15" fill="none" xmlns="http://www.w3.org/2000/svg">
<path d="M26.3253 0.657895H22.0488C21.6479 0.657895 21.3806 0.789474 21.247 1.18421C21.247 1.18421 19.5096 4.3421 18.9751 5.39474C17.5051 8.28947 16.5696 7.36842 16.5696 6.05263V1.44737C16.5696 0.657895 15.9014 0 15.0996 0H11.6249C10.8231 0 9.88762 0.394737 9.35306 1.05263C9.35306 1.05263 10.9567 0.789474 10.9567 3.02632C10.9567 3.55263 10.9567 5.13158 10.9567 6.44737C10.9567 6.97368 10.5558 7.36842 10.0213 7.36842C9.75398 7.36842 9.4867 7.23684 9.21942 7.10526C8.01667 5.26316 6.94755 3.28947 6.14572 1.18421C6.01208 0.921053 5.61116 0.657895 5.34388 0.657895C4.40841 0.657895 2.53745 0.657895 1.46834 0.657895C0.933783 0.657895 0.666504 0.921053 0.666504 1.31579C0.666504 1.44737 0.666504 1.44737 0.666504 1.57895C1.86926 4.86842 7.08119 15 12.9613 15H15.3668C15.9014 15 16.3023 14.6053 16.3023 14.0789V12.5C16.3023 11.9737 16.7032 11.5789 17.2378 11.5789C17.5051 11.5789 17.7723 11.7105 17.906 11.8421L20.846 14.6053C21.1133 14.8684 21.5142 15 21.7815 15H25.6571C27.528 15 27.528 13.6842 26.4589 12.7632C25.9243 11.9737 23.3852 9.21053 23.3852 9.21053C22.9843 8.68421 22.8506 8.02632 23.2516 7.5C24.187 6.44737 25.5234 4.73684 26.058 3.94737C26.8598 2.89474 28.3298 0.657895 26.3253 0.657895Z" fill="#32120D"/>
</svg>
